<svg width="62" height="62" viewBox="0 0 62 62" fill="none" xmlns="http://www.w3.org/2000/svg">
<g clip-path="url(#clip0_20_50)">
<path fill-rule="evenodd" clip-rule="evenodd" d="M56.2424 56.242C57.7703 54.7146 58.9617 52.8843 59.741 50.8693C60.491 48.9401 61.0038 46.7351 61.1513 43.5062C61.2988 40.271 61.3338 39.238 61.3338 31C61.3338 22.7621 61.2988 21.7286 61.1513 18.4937C61.0038 15.265 60.491 13.0601 59.741 11.1306C58.9794 9.10666 57.7857 7.27312 56.2424 5.758C54.7272 4.21464 52.8936 3.02039 50.8697 2.2586C48.94 1.50928 46.735 0.996597 43.5062 0.849784C40.2715 0.70157 39.2384 0.666664 31.0002 0.666664C22.7622 0.666664 21.7288 0.70157 18.4939 0.849224C15.2652 0.996597 13.0603 1.50928 11.1308 2.25916C9.10685 3.02086 7.27337 4.21482 5.75819 5.7579C4.21479 7.27294 3.02049 9.10642 2.25857 11.1305C1.50924 13.0601 0.996559 15.265 0.849746 18.4937C0.701532 21.7286 0.666626 22.762 0.666626 31C0.666626 39.2382 0.701532 40.2715 0.849746 43.5062C0.997166 46.7351 1.50985 48.9401 2.25973 50.8693C3.02143 52.8937 4.21539 54.7267 5.75847 56.242C7.2736 57.7853 9.10709 58.979 11.1311 59.7406C13.0606 60.4905 15.2655 61.0034 18.4942 61.1509C21.7295 61.2983 22.7625 61.3333 31.0005 61.3333C39.2385 61.3333 40.2719 61.2983 43.5066 61.1509C46.7355 61.0034 48.9405 60.4905 50.8697 59.7406C52.8848 58.9613 54.715 57.7699 56.2424 56.242ZM5.33091 27.4298C5.33208 28.4111 5.33353 29.5787 5.33353 31.0001C5.33353 32.4215 5.33208 33.5891 5.33091 34.5703C5.32625 38.4011 5.32508 39.3933 5.4249 41.5723C5.54913 44.3042 5.69837 46.3118 6.15407 47.8247C6.59217 49.2793 7.08353 50.7596 8.68769 52.5465C10.2919 54.3329 11.8391 55.1421 13.8101 55.7366C15.781 56.3307 18.2581 56.4585 20.4091 56.5565C22.8488 56.6681 23.8157 56.6676 28.9333 56.6662H31.0002C32.3675 56.6662 33.4998 56.6671 34.4575 56.6685C38.3824 56.6727 39.3731 56.6737 41.5735 56.5729C44.3056 56.4487 46.3132 56.2994 47.8261 55.8439C49.2807 55.4057 50.761 54.9143 52.5474 53.3099C54.3338 51.706 55.143 50.1585 55.7375 48.1878C56.332 46.2166 56.4599 43.7395 56.5579 41.5888C56.669 39.1522 56.6685 38.1879 56.6676 33.0883L56.6671 31.0018V28.9349C56.6685 23.8173 56.669 22.8504 56.5574 20.4106C56.4594 18.2597 56.3316 15.7826 55.7375 13.8116C55.143 11.8408 54.3338 10.2934 52.5474 8.68927C50.761 7.0851 49.2802 6.59375 47.8261 6.15564C46.3127 5.69994 44.3051 5.5507 41.5733 5.42648C39.3729 5.32568 38.3823 5.32675 34.4576 5.33104C33.4999 5.33212 32.3675 5.33338 31.0002 5.33338L28.9328 5.333C23.8157 5.33165 22.8487 5.33137 20.4091 5.44267C18.2581 5.54081 15.781 5.66854 13.8101 6.26298C11.8391 6.85742 10.2919 7.66662 8.68769 9.45311C7.08353 11.2396 6.59217 12.72 6.15407 14.1745C5.69837 15.6875 5.54913 17.695 5.4249 20.4271C5.32508 22.6061 5.32625 23.5987 5.33091 27.4298ZM30.9998 20.5007C25.2012 20.5007 20.5005 25.2014 20.5005 31C20.5005 36.7985 25.2012 41.4992 30.9998 41.4992C36.7983 41.4992 41.499 36.7985 41.499 31C41.499 25.2014 36.7983 20.5007 30.9998 20.5007ZM15.8339 31C15.8339 22.624 22.6239 15.834 30.9998 15.834C39.3757 15.834 46.1657 22.624 46.1657 31C46.1657 39.3759 39.3757 46.1657 30.9998 46.1657C22.6239 46.1657 15.8339 39.3759 15.8339 31ZM47.1919 18.3081C49.1248 18.3081 50.6919 16.7411 50.6919 14.8081C50.6919 12.8751 49.1248 11.3081 47.1919 11.3081C45.259 11.3081 43.6919 12.8751 43.6919 14.8081C43.6919 16.7411 45.259 18.3081 47.1919 18.3081Z" fill="#EDE0D4"/>
</g>
<defs>
<clipPath id="clip0_20_50">
<rect width="62" height="62" fill="white"/>
</clipPath>
</defs>
</svg>
