<svg width="55" height="55" viewBox="0 0 55 55" fill="none" xmlns="http://www.w3.org/2000/svg">
<g clip-path="url(#clip0_104_10)">
<path d="M30.9375 0H37.7438C38.2388 2.45781 39.6 5.55844 41.9891 8.635C44.3266 11.6497 47.4272 13.75 51.5625 13.75V20.625C45.5366 20.625 41.0094 17.8269 37.8125 14.3378V37.8125C37.8125 41.2119 36.8045 44.5349 34.9159 47.3614C33.0273 50.1878 30.343 52.3908 27.2024 53.6917C24.0618 54.9926 20.6059 55.3329 17.2719 54.6698C13.9378 54.0066 10.8753 52.3696 8.47161 49.9659C6.06789 47.5622 4.43094 44.4997 3.76776 41.1656C3.10458 37.8316 3.44495 34.3757 4.74583 31.2351C6.04671 28.0945 8.24967 25.4102 11.0761 23.5216C13.9026 21.633 17.2256 20.625 20.625 20.625V27.5C18.5854 27.5 16.5916 28.1048 14.8957 29.238C13.1998 30.3711 11.878 31.9817 11.0975 33.8661C10.317 35.7504 10.1127 37.8239 10.5107 39.8244C10.9086 41.8248 11.8907 43.6623 13.333 45.1045C14.7752 46.5468 16.6127 47.5289 18.6131 47.9268C20.6136 48.3248 22.6871 48.1205 24.5714 47.34C26.4558 46.5595 28.0664 45.2377 29.1995 43.5418C30.3327 41.8459 30.9375 39.8521 30.9375 37.8125V0Z" fill="#EDE0D4"/>
</g>
<defs>
<clipPath id="clip0_104_10">
<rect width="55" height="55" fill="white"/>
</clipPath>
</defs>
</svg>
